<svg xmlns="http://www.w3.org/2000/svg" width="72" height="72" viewBox="0 0 72 72">
    <g fill="none" fill-rule="evenodd">
        <g>
            <g>
                <g>
                    <g fill="#F34972" transform="translate(-684 -296) translate(530 258) translate(154 38)">
                        <circle cx="36" cy="36" r="36"/>
                    </g>
                    <g fill="#FFF">
                        <path d="M18.375-3.375c2.071 0 3.75 1.679 3.75 3.75v36.75c0 2.071-1.679 3.75-3.75 3.75-2.071 0-3.75-1.679-3.75-3.75V.375c0-2.071 1.679-3.75 3.75-3.75z" transform="translate(-684 -296) translate(530 258) translate(154 38) translate(17.625 17.625) scale(-1 1) rotate(45 0 -25.611)"/>
                        <path d="M18.375-3.375c2.071 0 3.75 1.679 3.75 3.75v36.75c0 2.071-1.679 3.75-3.75 3.75-2.071 0-3.75-1.679-3.75-3.75V.375c0-2.071 1.679-3.75 3.75-3.75z" transform="translate(-684 -296) translate(530 258) translate(154 38) translate(17.625 17.625) scale(-1 1) rotate(-45 0 63.111)"/>
                    </g>
                </g>
            </g>
        </g>
    </g>
</svg>
